<?xml version="1.0" encoding="UTF-8" standalone="no"?>
<!-- Created with Inkscape (http://www.inkscape.org/) -->

<svg
  width="12.699999mm"
  height="12.699999mm"
  viewBox="0 0 12.699999 12.699999"
  version="1.1"
  id="svg6749"
  xmlns="http://www.w3.org/2000/svg"
  xmlns:svg="http://www.w3.org/2000/svg">
  <defs
    id="defs6746" />
  <g
    id="layer1"
    transform="translate(-98.650002,-142.14999)">
    <rect
      width="12.699999"
      height="12.699999"
      rx="2.9765623"
      fill="#f0db4f"
      id="rect2"
      x="98.650002"
      y="142.14999"
      style="fill:#242938;fill-opacity:1;stroke-width:0.0496094" />
    <g
      id="g7140"
      transform="matrix(0.07394505,0,0,0.07394505,101.49114,162.44541)">
      <g
        id="g32"
        transform="translate(-8.04,-6.29)">


        <g
          id="g7226"
          transform="translate(-21.0663,-254.178)">
          <path
            class="st0"
            d="m 139.98,6.29 -33.55,36.74 c -0.4,18.63 -4.93,46.68 -24.69,72.31 l 29.19,7.29 C 159.63,76.78 139.98,6.29 139.98,6.29 Z"
            id="path24" />
          <path
            class="st1"
            d="m 106.43,43.03 c 0.28,-12.86 -1.41,-21.24 -1.41,-21.24 l -74.04,81.06 50.63,12.65 c 0.04,-0.05 0.08,-0.1 0.12,-0.16 l -33.67,-8.41 z"
            id="path26" />
          <path
            class="st2"
            d="m 48.07,106.93 33.67,8.41 C 101.5,89.71 106.03,61.66 106.43,43.03 Z"
            id="path28" />
          <path
            class="st3"
            d="m 94.9,123.77 c 2.93,0 5.81,0.14 8.64,0.4 L 8.04,100.61 c 0,0 17.77,5.89 39.24,38 11.35,-9.07 28.47,-14.84 47.62,-14.84 z"
            id="path30" />
        </g>

      </g>
    </g>
  </g>
  <style
    type="text/css"
    id="style2">
    .st0{fill:#FDB940;}
    .st1{fill:#FEB322;}
    .st2{fill:#F98200;}
    .st3{fill:#1B208B;}
</style>
</svg>