<?xml version="1.0" encoding="UTF-8" standalone="no"?>
<!-- Generator: Adobe Illustrator 24.0.1, SVG Export Plug-In . SVG Version: 6.00 Build 0)  -->

<svg
   version="1.1"
   id="Layer_1"
   x="0px"
   y="0px"
   viewBox="0 0 135.85907 132.32001"
   xml:space="preserve"
   width="135.85907"
   height="132.32001"
   xmlns="http://www.w3.org/2000/svg"
   xmlns:svg="http://www.w3.org/2000/svg"><defs
   id="defs41" />
<style
   type="text/css"
   id="style2">
	.st0{fill:#FDB940;}
	.st1{fill:#FEB322;}
	.st2{fill:#F98200;}
	.st3{fill:#1B208B;}
</style>
<g
   id="g32"
   transform="translate(-8.04,-6.29)">
	<g
   id="g22">
		<path
   class="st0"
   d="m 155.09,118.95 c 1.23,1.75 3.37,3.11 6.16,3.11 3.5,0 7.98,-2.14 7.98,-8.44 V 82.48 h 7.01 v 31.86 c 0,9.21 -7.33,14.73 -14.8,14.73 -5.32,0 -9.41,-2.47 -12,-6.03 z"
   id="path4" />
		<path
   class="st0"
   d="m 209.15,118.37 h -17.52 l -3.57,10.32 h -7.4 l 16.81,-46.2 h 5.84 l 16.81,46.2 h -7.4 z m -2.02,-6.23 -6.68,-20.18 h -0.13 l -6.68,20.18 z"
   id="path6" />
		<path
   class="st0"
   d="m 225.05,82.48 h 7.01 v 23.82 h 0.13 L 251.2,82.48 h 8.31 l -14.8,18.23 16.35,27.97 h -8.31 l -12.59,-22.58 -8.11,8.5 v 14.08 h -7.01 v -46.2 z"
   id="path8" />
		<path
   class="st0"
   d="M 289.62,118.37 H 272.1 l -3.57,10.32 h -7.4 l 16.81,-46.2 h 5.84 l 16.81,46.2 h -7.4 z m -2.01,-6.23 -6.68,-20.18 h -0.13 l -6.68,20.18 z"
   id="path10" />
		<path
   class="st0"
   d="m 305.52,82.48 h 18.04 c 3.89,0 6.94,0.91 9.41,3.05 2.6,2.21 4.61,5.71 4.61,9.86 0,5.97 -3.37,10.84 -8.95,12.78 l 10.71,20.51 h -8.31 l -9.54,-19.73 h -8.96 v 19.73 h -7.01 z m 7.01,20.25 h 10.58 c 5.26,0 7.85,-3.44 7.85,-7.33 0,-2.4 -0.91,-4.22 -2.34,-5.26 -1.3,-0.97 -2.73,-1.43 -5.13,-1.43 h -10.97 v 14.02 z"
   id="path12" />
		<path
   class="st0"
   d="m 351.8,88.71 h -12.65 v -6.23 h 32.32 v 6.23 h -12.65 v 39.97 h -7.01 V 88.71 Z"
   id="path14" />
		<path
   class="st0"
   d="m 395.29,118.37 h -17.52 l -3.57,10.32 h -7.4 l 16.81,-46.2 h 5.84 l 16.81,46.2 h -7.4 z m -2.02,-6.23 -6.68,-20.18 h -0.13 l -6.68,20.18 z"
   id="path16" />
		<path
   class="st0"
   d="m 426.76,82.48 h 29.53 v 6.62 h -22.52 v 13.17 h 19.21 v 6.23 h -19.21 v 13.56 h 22.52 v 6.62 h -29.53 z"
   id="path18" />
		<path
   class="st0"
   d="m 462.85,82.48 h 29.53 v 6.62 h -22.52 v 13.17 h 19.21 v 6.23 h -19.21 v 13.56 h 22.52 v 6.62 h -29.53 z"
   id="path20" />
	</g>
	<path
   class="st0"
   d="m 139.98,6.29 -33.55,36.74 c -0.4,18.63 -4.93,46.68 -24.69,72.31 l 29.19,7.29 C 159.63,76.78 139.98,6.29 139.98,6.29 Z"
   id="path24" />
	<path
   class="st1"
   d="m 106.43,43.03 c 0.28,-12.86 -1.41,-21.24 -1.41,-21.24 l -74.04,81.06 50.63,12.65 c 0.04,-0.05 0.08,-0.1 0.12,-0.16 l -33.67,-8.41 z"
   id="path26" />
	<path
   class="st2"
   d="m 48.07,106.93 33.67,8.41 C 101.5,89.71 106.03,61.66 106.43,43.03 Z"
   id="path28" />
	<path
   class="st3"
   d="m 94.9,123.77 c 2.93,0 5.81,0.14 8.64,0.4 L 8.04,100.61 c 0,0 17.77,5.89 39.24,38 11.35,-9.07 28.47,-14.84 47.62,-14.84 z"
   id="path30" />
</g>
<g
   id="g36"
   transform="translate(3.94629,165.46158)">
	<path
   class="st0"
   d="m 400.59,82.58 c 0,-0.1 0.05,-0.15 0.15,-0.15 h 5.36 c 0.11,0 0.17,0.05 0.17,0.15 v 0.75 c 0,0.09 -0.05,0.14 -0.15,0.14 h -1.83 c -0.07,0 -0.11,0.03 -0.11,0.09 v 5.79 c 0,0.11 -0.05,0.17 -0.14,0.17 h -1.15 c -0.08,0 -0.12,-0.05 -0.12,-0.15 v -5.79 c 0,-0.07 -0.04,-0.11 -0.11,-0.11 h -1.93 c -0.1,0 -0.15,-0.05 -0.15,-0.14 v -0.75 z m 6.7,6.88 c -0.04,-0.04 -0.05,-0.08 -0.05,-0.15 v -6.72 c 0,-0.11 0.05,-0.17 0.15,-0.17 h 1.62 c 0.06,0 0.11,0.01 0.14,0.03 0.03,0.02 0.05,0.06 0.06,0.11 l 1.68,4.51 c 0.04,0.1 0.09,0.1 0.14,-0.02 l 1.63,-4.45 c 0.03,-0.12 0.09,-0.18 0.18,-0.18 h 1.68 c 0.08,0 0.12,0.05 0.12,0.15 v 6.74 c 0,0.07 -0.02,0.12 -0.05,0.15 -0.03,0.03 -0.08,0.05 -0.15,0.05 h -1.02 c -0.07,0 -0.12,-0.01 -0.15,-0.04 -0.03,-0.03 -0.04,-0.07 -0.04,-0.13 v -5 c 0,-0.04 -0.01,-0.06 -0.02,-0.06 -0.02,0 -0.03,0.02 -0.05,0.06 l -1.82,5.03 c -0.03,0.09 -0.09,0.14 -0.18,0.14 h -0.69 c -0.1,0 -0.17,-0.05 -0.2,-0.14 l -1.8,-4.97 c -0.01,-0.04 -0.03,-0.06 -0.05,-0.06 -0.02,0 -0.03,0.03 -0.03,0.08 v 4.93 c 0,0.05 -0.01,0.09 -0.03,0.11 -0.02,0.03 -0.07,0.04 -0.14,0.04 h -0.81 c -0.04,0.02 -0.09,0 -0.12,-0.04 z"
   id="path34" />
</g>
</svg>
