<?xml version="1.0" encoding="UTF-8" standalone="no"?>
<svg
   width="67.767731"
   height="63.008099"
   viewBox="0 0 67.767731 63.008099"
   fill="none"
   version="1.1"
   id="svg24"
   xmlns="http://www.w3.org/2000/svg"
   xmlns:svg="http://www.w3.org/2000/svg">
  <defs
     id="defs28">
    <clipPath
       clipPathUnits="userSpaceOnUse"
       id="clipPath454">
      <path
         id="path456"
         style="fill:#ff0000;fill-opacity:1;fill-rule:nonzero;stroke:none"
         d="M 77.925781,15.583984 V 51.220703 H 110.17383 V 15.583984 Z" />
    </clipPath>
    <clipPath
       clipPathUnits="userSpaceOnUse"
       id="clipPath464">
      <path
         id="path466"
         style="fill:#ff0000;fill-opacity:1;fill-rule:nonzero;stroke:none"
         d="m 116.4043,15.583984 c 3.73975,2.332398 7.47899,4.666511 11.22265,6.992188 1.90955,1.186278 3.78678,2.425211 5.73047,3.554687 2.40782,1.399183 4.87879,2.686243 7.31836,4.029297 1.4913,0.755612 3.03846,1.411786 4.47461,2.267578 0.55022,0.327871 0.77688,0.482146 1.23438,0.759766 V 15.583984 Z m -2.27539,2.189454 v 33.447265 h 32.25586 V 36.775391 c -0.77305,-0.48606 -1.46847,-0.931614 -2.61915,-1.617188 -1.4663,-0.873632 -3.04412,-1.544415 -4.5664,-2.316406 -2.48504,-1.369647 -5.00179,-2.681695 -7.45508,-4.107422 -1.94474,-1.130183 -3.82375,-2.369695 -5.73437,-3.556641 -3.96354,-2.462283 -7.92166,-4.934606 -11.88086,-7.404296 z" />
    </clipPath>
    <clipPath
       clipPathUnits="userSpaceOnUse"
       id="clipPath474">
      <path
         id="path476"
         style="fill:#ff0000;fill-opacity:1;fill-rule:nonzero;stroke:none"
         d="m 150.69727,15.958984 v 19.990235 c 1.68534,1.187017 2.7571,2.101982 6.30078,4.544922 0.12489,0.0861 0.64605,0.43018 0.82617,0.552734 V 15.958984 Z m 0,23.75586 v 11.130859 h 7.12695 v -6.115234 c -0.86722,-0.582902 -2.21964,-1.479081 -2.6211,-1.75586 -2.28105,-1.572644 -3.43766,-2.455644 -4.50585,-3.259765 z" />
    </clipPath>
    <clipPath
       clipPathUnits="userSpaceOnUse"
       id="clipPath514">
      <path
         id="path516"
         style="fill:#ff0000;fill-opacity:1;fill-rule:nonzero;stroke:none"
         d="m 231.61719,15.583984 v 6.748047 H 256 v -6.748047 z" />
    </clipPath>
    <clipPath
       clipPathUnits="userSpaceOnUse"
       id="clipPath526">
      <path
         id="path528"
         style="fill:#ff0000;fill-opacity:1;fill-rule:nonzero;stroke:none"
         d="m 157.82422,15.583984 v 25.462891 c 2.48982,1.694049 9.53443,6.39182 12.05078,7.916016 1.06294,0.643838 2.14053,1.264775 3.21875,1.882812 h 9.875 v -5.730469 c -0.10738,-0.0016 -0.29807,0.0099 -1.24609,0.06445 0.11377,0.597406 -0.0111,0.877839 -0.73243,0.296874 -0.55438,-0.446495 -1.53997,-0.638911 -1.66406,-1.339843 -0.24649,-1.392257 0.63665,-1.703417 1.46094,-1.884766 -0.0696,-0.303674 -0.01,-0.385066 0.29492,-0.06445 0.0793,-0.01625 0.16642,-0.03596 0.24024,-0.05273 0.54874,-0.02582 1.0974,-0.06975 1.64648,-0.08203 V 15.583984 Z M 181.08203,42.1875 c -0.0973,0.01995 -0.1934,0.04212 -0.29492,0.06445 0.12712,0.554704 0.65725,1.813003 0.87695,2.677735 0.32063,-0.281434 0.68114,-0.699242 0.69532,-1.220704 0.015,-0.553208 -0.70738,-0.853231 -1.06055,-1.279296 -0.0891,-0.107468 -0.15163,-0.173662 -0.2168,-0.242188 z m -23.25781,2.542969 v 6.115234 h 9.32617 c -2.52531,-1.583874 -6.41893,-4.161131 -9.32617,-6.115234 z" />
    </clipPath>
    <clipPath
       clipPathUnits="userSpaceOnUse"
       id="clipPath536">
      <path
         id="path538"
         style="fill:#ff0000;fill-opacity:1;fill-rule:nonzero;stroke:none"
         d="m 187.28125,15.583984 v 26.654297 c 1.03113,-0.0161 1.28229,-0.01674 3.21484,-0.05078 1.67015,-0.02942 3.33773,-0.110046 5.00586,-0.197266 7.32912,-0.383229 5.5822,-0.261621 11.53711,-0.925781 1.82531,-0.22927 3.65318,-0.431161 5.47461,-0.689453 0.76904,-0.109055 1.53073,-0.262782 2.29297,-0.412109 1.58055,-0.309637 3.15854,-0.631852 4.73633,-0.955079 V 15.583984 Z m 32.26172,26.546875 c -1.37658,0.279566 -2.75266,0.562015 -4.13086,0.832032 -0.7825,0.153307 -1.56411,0.313359 -2.35352,0.425781 -1.87518,0.267048 -3.75757,0.475372 -5.63671,0.71289 -6.02727,0.672656 -4.28495,0.552952 -11.73047,0.945313 -1.6903,0.08908 -3.38184,0.171002 -5.07422,0.201172 -1.11133,0.01981 -2.22403,0.01291 -3.33594,0 v 5.972656 h 32.26172 z" />
    </clipPath>
    <clipPath
       clipPathUnits="userSpaceOnUse"
       id="clipPath546">
      <path
         id="path548"
         style="fill:#ff0000;fill-opacity:1;fill-rule:nonzero;stroke:none"
         d="m 224.49023,16.345703 v 21.621094 c 1.46041,-0.312439 2.922,-0.619372 4.38086,-0.9375 1.73909,-0.379234 1.72655,-0.373521 2.7461,-0.591797 V 16.345703 Z m 7.12696,23.224609 c -0.89031,0.191646 -0.76654,0.161691 -2.08399,0.449219 -1.67987,0.366629 -3.36166,0.722038 -5.04297,1.080078 v 9.746094 h 7.12696 z" />
    </clipPath>
  </defs>
  <path
     d="m 53.343604,27.3993 c 0.0216,-5.0006 -0.9179,-9.9587 -2.7671,-14.6048 -0.3828,0.1569 -0.6583,0.3024 -0.8573,0.4019 -0.4072,0.2111 -0.7401,0.5416 -0.9542,0.9472 -0.2141,0.4057 -0.2992,0.867 -0.2438,1.3223 0.2352,2.0328 0.3554,4.0773 0.3598,6.1236 0,9.3538 -3.0197,18.3249 -8.5041,25.2599 -5.186,6.5561 -12.1439,10.7737 -19.7104,11.9793 l 0.065,0.0383 c 2.1848,1.2409 4.6398,1.929 7.1512,2.0043 2.5114,0.0754 5.0032,-0.4642 7.2585,-1.5718 10.678,-5.2357 18.2024,-17.5633 18.2024,-31.9002 z"
     fill="#fd3456"
     id="path2" />
  <path
     d="m 55.429404,11.8416 c -0.6633,-0.0182 -1.3269,0.0241 -1.9825,0.1262 1.9183,4.9178 2.8933,10.1529 2.8743,15.4315 0,16.0745 -8.9558,30.3387 -22.0297,35.5399 0.6583,0.0421 1.3242,0.0689 1.994,0.0689 h 0.0995 c 3.1152,-0.0139 6.1882,-0.7215 8.9958,-2.0713 2.8076,-1.3499 5.2793,-3.3081 7.2356,-5.7325 5.006,-6.1963 8.0793,-14.5435 8.0793,-23.6945 0.0474,-6.9106 -1.7721,-13.7059 -5.2663,-19.6682 z"
     fill="#fd3456"
     id="path4" />
  <path
     d="m 67.767704,31.5098 c 0.005,-4.144 -0.8104,-8.2479 -2.3997,-12.075 -0.6913,-1.7182 -1.7208,-3.28 -3.0273,-4.5927 -0.7012,-0.7071 -1.5019,-1.3079 -2.3767,-1.7835 -0.222,-0.1148 -0.4478,-0.2182 -0.666,-0.3138 2.8883,5.8283 4.3807,12.2488 4.3593,18.7535 0,9.3002 -3.0312,18.2598 -8.42,25.1336 3.8927,-2.9299 7.051,-6.7246 9.2256,-11.0845 2.1747,-4.3598 3.306,-9.1655 3.3048,-14.0376 z"
     fill="#fd3456"
     id="path6" />
  <path
     d="M 58.881304,9.56814 C 55.952404,6.53916 52.443704,4.13095 48.564204,2.48709 44.684704,0.84323404 40.513904,-0.00260696 36.300504,6.0356637e-6 18.8941,6.0356637e-6 4.6299203,14.4211 4.8059703,31.8275 c 0.03756,4.1267 0.88948,8.2054 2.50687,12.0022 -0.51874,-0.0689 -1.04259,-0.092 -1.56538,-0.0689 -1.41226,0.0651 -3.41004,-0.4439 -4.31327,-0.6965 -0.90323598,-0.2526 -1.71079098,0.4707 -1.34337498,1.3127 v 0.0268 C 3.2176803,51.5646 10.1488,56.2262 16.7661,56.2109 c 0.4398,0 0.8793,-0.023 1.3166,-0.0689 15.496604,-1.1788 27.793604,-16.2237 27.793604,-34.5486 0,-1.1559 -0.0498,-2.304 -0.1493,-3.4445 -0.012,-0.1376 -0.0655,-0.2683 -0.1534,-0.3748 -0.088,-0.1064 -0.2062,-0.1837 -0.339,-0.2214 -0.1328,-0.0378 -0.2739,-0.0343 -0.4047,0.01 -0.1308,0.0442 -0.2451,0.1272 -0.3277,0.2379 v 0 c -4.2865,5.672 -10.6359,15.6458 -18.5774,10.4484 -3.0618,-1.994 -4.6923,-6.2844 -3.7699,-10.6513 1.6534,-7.84202 10.7929,-13.01264 14.8192,-11.38989 0.3138,0.1263 1.4466,0.57791 1.8332,1.61127 0.5894,1.57683 -1.1865,2.87432 -2.0935,5.66812 -0.976,3.0236 -0.4248,6.227 0.2603,6.3686 0.7654,0.1531 2.0475,-2.6523 5.2089,-5.2051 2.2963,-1.8485 4.0262,-2.369 5.1132,-4.3324 1.0486,-1.91365 -0.8191,-3.93061 -0.1837,-4.11049 0.6353,-0.17988 1.2285,2.02462 3.1192,3.11921 1.5806,0.91858 2.9891,0.34445 5.0673,0.26025 0.769,-0.0055 1.5371,0.0534 2.2963,0.17606 0,0 0.4057,0.05741 1.0487,0.19137 0.0491,0.01265 0.101,0.0092 0.148,-0.0098 0.0471,-0.01902 0.0868,-0.05262 0.1133,-0.09586 0.0266,-0.04324 0.0386,-0.09385 0.0342,-0.14441 -0.004,-0.05055 -0.0247,-0.09839 -0.0582,-0.13648 z m -23.4764,24.28006 c 0.3471,-0.4652 0.862,-0.7769 1.4352,-0.8687 0.2484,-0.0354 0.5015,-0.0197 0.7437,0.0461 0.2421,0.0658 0.4683,0.1803 0.6647,0.3366 0.7655,0.708 0.5397,2.0782 -0.1186,2.8666 -0.6124,0.7272 -1.818,1.2056 -2.6561,0.6659 -0.2335,-0.1806 -0.422,-0.4128 -0.5508,-0.6784 -0.1288,-0.2655 -0.1944,-0.5573 -0.1917,-0.8525 0.0242,-0.5723 0.2649,-1.1141 0.6736,-1.5156 z"
     fill="#ffffff"
     id="path8" />
</svg>
